<mxfile host="app.diagrams.net" agent="Mozilla/5.0 (Windows NT 10.0; Win64; x64) AppleWebKit/537.36 (KHTML, like Gecko) Chrome/140.0.0.0 Safari/537.36" version="28.2.3">
  <diagram name="Página-1" id="kHlHYl7hVM9lB42jGdka">
    <mxGraphModel grid="1" page="1" gridSize="10" guides="1" tooltips="1" connect="1" arrows="1" fold="1" pageScale="1" pageWidth="1200" pageHeight="1600" math="0" shadow="0">
      <root>
        <mxCell id="0" />
        <mxCell id="1" parent="0" />
        <mxCell id="PHkemYpd5gOHxsiqUf00-45" style="edgeStyle=orthogonalEdgeStyle;rounded=0;orthogonalLoop=1;jettySize=auto;html=1;exitX=1;exitY=1;exitDx=0;exitDy=0;entryX=0.5;entryY=0;entryDx=0;entryDy=0;" edge="1" parent="1" source="PHkemYpd5gOHxsiqUf00-6" target="PHkemYpd5gOHxsiqUf00-8">
          <mxGeometry relative="1" as="geometry" />
        </mxCell>
        <mxCell id="PHkemYpd5gOHxsiqUf00-46" style="edgeStyle=orthogonalEdgeStyle;rounded=0;orthogonalLoop=1;jettySize=auto;html=1;exitX=0.5;exitY=1;exitDx=0;exitDy=0;entryX=0.5;entryY=0;entryDx=0;entryDy=0;" edge="1" parent="1" source="PHkemYpd5gOHxsiqUf00-6" target="PHkemYpd5gOHxsiqUf00-7">
          <mxGeometry relative="1" as="geometry" />
        </mxCell>
        <mxCell id="PHkemYpd5gOHxsiqUf00-47" style="edgeStyle=orthogonalEdgeStyle;rounded=0;orthogonalLoop=1;jettySize=auto;html=1;exitX=0;exitY=0.5;exitDx=0;exitDy=0;entryX=1;entryY=0.5;entryDx=0;entryDy=0;" edge="1" parent="1" source="PHkemYpd5gOHxsiqUf00-6" target="PHkemYpd5gOHxsiqUf00-10">
          <mxGeometry relative="1" as="geometry" />
        </mxCell>
        <mxCell id="PHkemYpd5gOHxsiqUf00-49" style="edgeStyle=orthogonalEdgeStyle;rounded=0;orthogonalLoop=1;jettySize=auto;html=1;exitX=1;exitY=0.5;exitDx=0;exitDy=0;entryX=0;entryY=0.5;entryDx=0;entryDy=0;" edge="1" parent="1" source="PHkemYpd5gOHxsiqUf00-6" target="PHkemYpd5gOHxsiqUf00-48">
          <mxGeometry relative="1" as="geometry" />
        </mxCell>
        <mxCell id="PHkemYpd5gOHxsiqUf00-6" value="CLIENTES" style="rounded=0;whiteSpace=wrap;html=1;fillColor=#dae8fc;gradientColor=#7ea6e0;strokeColor=#6c8ebf;" vertex="1" parent="1">
          <mxGeometry x="170" y="490" width="120" height="60" as="geometry" />
        </mxCell>
        <mxCell id="PHkemYpd5gOHxsiqUf00-7" value="CPF" style="ellipse;whiteSpace=wrap;html=1;fillColor=#d5e8d4;gradientColor=#97d077;strokeColor=#82b366;" vertex="1" parent="1">
          <mxGeometry x="60" y="600" width="120" height="70" as="geometry" />
        </mxCell>
        <mxCell id="PHkemYpd5gOHxsiqUf00-8" value="NOME" style="ellipse;whiteSpace=wrap;html=1;fillColor=#d5e8d4;gradientColor=#97d077;strokeColor=#82b366;" vertex="1" parent="1">
          <mxGeometry x="210" y="600" width="120" height="70" as="geometry" />
        </mxCell>
        <mxCell id="PHkemYpd5gOHxsiqUf00-10" value="ENDEREÇO" style="ellipse;whiteSpace=wrap;html=1;fillColor=#d5e8d4;gradientColor=#97d077;strokeColor=#82b366;" vertex="1" parent="1">
          <mxGeometry x="-20" y="485" width="120" height="70" as="geometry" />
        </mxCell>
        <mxCell id="PHkemYpd5gOHxsiqUf00-51" style="edgeStyle=orthogonalEdgeStyle;rounded=0;orthogonalLoop=1;jettySize=auto;html=1;exitX=1;exitY=0.5;exitDx=0;exitDy=0;entryX=0;entryY=0.5;entryDx=0;entryDy=0;" edge="1" parent="1" source="PHkemYpd5gOHxsiqUf00-11" target="PHkemYpd5gOHxsiqUf00-30">
          <mxGeometry relative="1" as="geometry" />
        </mxCell>
        <mxCell id="PHkemYpd5gOHxsiqUf00-52" style="edgeStyle=orthogonalEdgeStyle;rounded=0;orthogonalLoop=1;jettySize=auto;html=1;exitX=0.5;exitY=1;exitDx=0;exitDy=0;entryX=0.5;entryY=0;entryDx=0;entryDy=0;" edge="1" parent="1" source="PHkemYpd5gOHxsiqUf00-11" target="PHkemYpd5gOHxsiqUf00-29">
          <mxGeometry relative="1" as="geometry" />
        </mxCell>
        <mxCell id="PHkemYpd5gOHxsiqUf00-56" style="edgeStyle=orthogonalEdgeStyle;rounded=0;orthogonalLoop=1;jettySize=auto;html=1;exitX=0.5;exitY=0;exitDx=0;exitDy=0;entryX=0.5;entryY=1;entryDx=0;entryDy=0;" edge="1" parent="1" source="PHkemYpd5gOHxsiqUf00-11" target="PHkemYpd5gOHxsiqUf00-54">
          <mxGeometry relative="1" as="geometry" />
        </mxCell>
        <mxCell id="PHkemYpd5gOHxsiqUf00-11" value="COMPRAS" style="rounded=0;whiteSpace=wrap;html=1;fillColor=#dae8fc;gradientColor=#7ea6e0;strokeColor=#6c8ebf;" vertex="1" parent="1">
          <mxGeometry x="510" y="490" width="120" height="60" as="geometry" />
        </mxCell>
        <mxCell id="PHkemYpd5gOHxsiqUf00-12" value="QUANTIDADE EM ESTOQUE" style="ellipse;whiteSpace=wrap;html=1;fillColor=#d5e8d4;gradientColor=#97d077;strokeColor=#82b366;" vertex="1" parent="1">
          <mxGeometry x="170" y="140" width="120" height="70" as="geometry" />
        </mxCell>
        <mxCell id="PHkemYpd5gOHxsiqUf00-13" value="PREÇO" style="ellipse;whiteSpace=wrap;html=1;fillColor=#d5e8d4;gradientColor=#97d077;strokeColor=#82b366;" vertex="1" parent="1">
          <mxGeometry x="700" y="260" width="120" height="70" as="geometry" />
        </mxCell>
        <mxCell id="PHkemYpd5gOHxsiqUf00-40" style="edgeStyle=orthogonalEdgeStyle;rounded=0;orthogonalLoop=1;jettySize=auto;html=1;exitX=1;exitY=0.25;exitDx=0;exitDy=0;entryX=0;entryY=0.5;entryDx=0;entryDy=0;" edge="1" parent="1" source="PHkemYpd5gOHxsiqUf00-15" target="PHkemYpd5gOHxsiqUf00-31">
          <mxGeometry relative="1" as="geometry" />
        </mxCell>
        <mxCell id="PHkemYpd5gOHxsiqUf00-41" style="edgeStyle=orthogonalEdgeStyle;rounded=0;orthogonalLoop=1;jettySize=auto;html=1;exitX=1;exitY=0.5;exitDx=0;exitDy=0;entryX=0;entryY=0.5;entryDx=0;entryDy=0;" edge="1" parent="1" source="PHkemYpd5gOHxsiqUf00-15" target="PHkemYpd5gOHxsiqUf00-13">
          <mxGeometry relative="1" as="geometry" />
        </mxCell>
        <mxCell id="PHkemYpd5gOHxsiqUf00-55" style="edgeStyle=orthogonalEdgeStyle;rounded=0;orthogonalLoop=1;jettySize=auto;html=1;exitX=0.5;exitY=1;exitDx=0;exitDy=0;entryX=0.5;entryY=0;entryDx=0;entryDy=0;" edge="1" parent="1" source="PHkemYpd5gOHxsiqUf00-15" target="PHkemYpd5gOHxsiqUf00-54">
          <mxGeometry relative="1" as="geometry" />
        </mxCell>
        <mxCell id="PHkemYpd5gOHxsiqUf00-15" value="PRODUTO" style="rounded=0;whiteSpace=wrap;html=1;fillColor=#dae8fc;gradientColor=#7ea6e0;strokeColor=#6c8ebf;" vertex="1" parent="1">
          <mxGeometry x="510" y="265" width="120" height="60" as="geometry" />
        </mxCell>
        <mxCell id="PHkemYpd5gOHxsiqUf00-36" value="" style="edgeStyle=orthogonalEdgeStyle;rounded=0;orthogonalLoop=1;jettySize=auto;html=1;endArrow=none;endFill=0;" edge="1" parent="1" source="PHkemYpd5gOHxsiqUf00-16" target="PHkemYpd5gOHxsiqUf00-15">
          <mxGeometry relative="1" as="geometry" />
        </mxCell>
        <mxCell id="PHkemYpd5gOHxsiqUf00-16" value="VENDE" style="rhombus;whiteSpace=wrap;html=1;fillColor=#f8cecc;gradientColor=#ea6b66;strokeColor=#b85450;" vertex="1" parent="1">
          <mxGeometry x="360" y="255" width="80" height="80" as="geometry" />
        </mxCell>
        <mxCell id="PHkemYpd5gOHxsiqUf00-29" value="DATA" style="ellipse;whiteSpace=wrap;html=1;fillColor=#d5e8d4;gradientColor=#97d077;strokeColor=#82b366;" vertex="1" parent="1">
          <mxGeometry x="550" y="600" width="120" height="70" as="geometry" />
        </mxCell>
        <mxCell id="PHkemYpd5gOHxsiqUf00-30" value="VALOR TOTAL" style="ellipse;whiteSpace=wrap;html=1;fillColor=#d5e8d4;gradientColor=#97d077;strokeColor=#82b366;" vertex="1" parent="1">
          <mxGeometry x="680" y="485" width="120" height="70" as="geometry" />
        </mxCell>
        <mxCell id="PHkemYpd5gOHxsiqUf00-31" value="NOME" style="ellipse;whiteSpace=wrap;html=1;fillColor=#d5e8d4;gradientColor=#97d077;strokeColor=#82b366;" vertex="1" parent="1">
          <mxGeometry x="700" y="120" width="120" height="70" as="geometry" />
        </mxCell>
        <mxCell id="PHkemYpd5gOHxsiqUf00-39" style="edgeStyle=orthogonalEdgeStyle;rounded=0;orthogonalLoop=1;jettySize=auto;html=1;exitX=1;exitY=0.5;exitDx=0;exitDy=0;entryX=0;entryY=0.5;entryDx=0;entryDy=0;endArrow=none;endFill=0;" edge="1" parent="1" source="PHkemYpd5gOHxsiqUf00-37" target="PHkemYpd5gOHxsiqUf00-16">
          <mxGeometry relative="1" as="geometry" />
        </mxCell>
        <mxCell id="PHkemYpd5gOHxsiqUf00-43" style="edgeStyle=orthogonalEdgeStyle;rounded=0;orthogonalLoop=1;jettySize=auto;html=1;exitX=0.5;exitY=1;exitDx=0;exitDy=0;entryX=0.5;entryY=0;entryDx=0;entryDy=0;endArrow=classic;endFill=1;" edge="1" parent="1" source="PHkemYpd5gOHxsiqUf00-37" target="PHkemYpd5gOHxsiqUf00-42">
          <mxGeometry relative="1" as="geometry" />
        </mxCell>
        <mxCell id="PHkemYpd5gOHxsiqUf00-53" style="edgeStyle=orthogonalEdgeStyle;rounded=0;orthogonalLoop=1;jettySize=auto;html=1;exitX=0.5;exitY=0;exitDx=0;exitDy=0;" edge="1" parent="1" source="PHkemYpd5gOHxsiqUf00-37" target="PHkemYpd5gOHxsiqUf00-12">
          <mxGeometry relative="1" as="geometry" />
        </mxCell>
        <mxCell id="PHkemYpd5gOHxsiqUf00-37" value="LOJA" style="rounded=0;whiteSpace=wrap;html=1;fillColor=#dae8fc;gradientColor=#7ea6e0;strokeColor=#6c8ebf;" vertex="1" parent="1">
          <mxGeometry x="170" y="265" width="120" height="60" as="geometry" />
        </mxCell>
        <mxCell id="PHkemYpd5gOHxsiqUf00-44" style="edgeStyle=orthogonalEdgeStyle;rounded=0;orthogonalLoop=1;jettySize=auto;html=1;exitX=0.5;exitY=1;exitDx=0;exitDy=0;entryX=0.5;entryY=0;entryDx=0;entryDy=0;endArrow=classic;endFill=1;" edge="1" parent="1" source="PHkemYpd5gOHxsiqUf00-42" target="PHkemYpd5gOHxsiqUf00-6">
          <mxGeometry relative="1" as="geometry" />
        </mxCell>
        <mxCell id="PHkemYpd5gOHxsiqUf00-42" value="CONTEM" style="rhombus;whiteSpace=wrap;html=1;fillColor=#f8cecc;gradientColor=#ea6b66;strokeColor=#b85450;" vertex="1" parent="1">
          <mxGeometry x="190" y="370" width="80" height="80" as="geometry" />
        </mxCell>
        <mxCell id="PHkemYpd5gOHxsiqUf00-50" style="edgeStyle=orthogonalEdgeStyle;rounded=0;orthogonalLoop=1;jettySize=auto;html=1;exitX=1;exitY=0.5;exitDx=0;exitDy=0;entryX=0;entryY=0.5;entryDx=0;entryDy=0;endArrow=none;endFill=0;" edge="1" parent="1" source="PHkemYpd5gOHxsiqUf00-48" target="PHkemYpd5gOHxsiqUf00-11">
          <mxGeometry relative="1" as="geometry" />
        </mxCell>
        <mxCell id="PHkemYpd5gOHxsiqUf00-48" value="FAZEM" style="rhombus;whiteSpace=wrap;html=1;fillColor=#f8cecc;gradientColor=#ea6b66;strokeColor=#b85450;" vertex="1" parent="1">
          <mxGeometry x="370" y="480" width="80" height="80" as="geometry" />
        </mxCell>
        <mxCell id="PHkemYpd5gOHxsiqUf00-54" value="CONTEM" style="rhombus;whiteSpace=wrap;html=1;fillColor=#f8cecc;gradientColor=#ea6b66;strokeColor=#b85450;" vertex="1" parent="1">
          <mxGeometry x="530" y="360" width="80" height="80" as="geometry" />
        </mxCell>
        <mxCell id="PHkemYpd5gOHxsiqUf00-57" value="1" style="text;html=1;align=center;verticalAlign=middle;resizable=0;points=[];autosize=1;strokeColor=none;fillColor=none;" vertex="1" parent="1">
          <mxGeometry x="280" y="270" width="30" height="30" as="geometry" />
        </mxCell>
        <mxCell id="PHkemYpd5gOHxsiqUf00-58" value="N" style="text;html=1;align=center;verticalAlign=middle;resizable=0;points=[];autosize=1;strokeColor=none;fillColor=none;" vertex="1" parent="1">
          <mxGeometry x="480" y="270" width="30" height="30" as="geometry" />
        </mxCell>
        <mxCell id="PHkemYpd5gOHxsiqUf00-59" value="1" style="text;html=1;align=center;verticalAlign=middle;resizable=0;points=[];autosize=1;strokeColor=none;fillColor=none;" vertex="1" parent="1">
          <mxGeometry x="200" y="320" width="30" height="30" as="geometry" />
        </mxCell>
        <mxCell id="PHkemYpd5gOHxsiqUf00-60" value="N" style="text;html=1;align=center;verticalAlign=middle;resizable=0;points=[];autosize=1;strokeColor=none;fillColor=none;" vertex="1" parent="1">
          <mxGeometry x="200" y="460" width="30" height="30" as="geometry" />
        </mxCell>
        <mxCell id="PHkemYpd5gOHxsiqUf00-61" value="N" style="text;html=1;align=center;verticalAlign=middle;resizable=0;points=[];autosize=1;strokeColor=none;fillColor=none;" vertex="1" parent="1">
          <mxGeometry x="290" y="490" width="30" height="30" as="geometry" />
        </mxCell>
        <mxCell id="PHkemYpd5gOHxsiqUf00-62" value="N" style="text;html=1;align=center;verticalAlign=middle;resizable=0;points=[];autosize=1;strokeColor=none;fillColor=none;" vertex="1" parent="1">
          <mxGeometry x="480" y="490" width="30" height="30" as="geometry" />
        </mxCell>
        <mxCell id="PHkemYpd5gOHxsiqUf00-63" value="N" style="text;html=1;align=center;verticalAlign=middle;resizable=0;points=[];autosize=1;strokeColor=none;fillColor=none;" vertex="1" parent="1">
          <mxGeometry x="570" y="320" width="30" height="30" as="geometry" />
        </mxCell>
        <mxCell id="PHkemYpd5gOHxsiqUf00-64" value="N" style="text;html=1;align=center;verticalAlign=middle;resizable=0;points=[];autosize=1;strokeColor=none;fillColor=none;" vertex="1" parent="1">
          <mxGeometry x="570" y="455" width="30" height="30" as="geometry" />
        </mxCell>
      </root>
    </mxGraphModel>
  </diagram>
</mxfile>
